<svg width="180" height="180" viewBox="0 0 180 180" fill="none" xmlns="http://www.w3.org/2000/svg">
<path d="M45 54.7336C45.0049 -4.81285 135.419 -5.00946 134.998 54.7336" stroke="#0466C8" stroke-width="20"/>
<path d="M135 125C134.995 184.546 44.5812 184.743 45.0015 125" stroke="#0466C8" stroke-width="20"/>
<path d="M54.7336 135C-4.81285 134.995 -5.00946 44.5812 54.7336 45.0014" stroke="#0466C8" stroke-width="20"/>
<path d="M125 45C184.546 45.0049 184.743 135.419 125 134.998" stroke="#0466C8" stroke-width="20"/>
<path d="M130 90C130 112.091 112.091 130 90 130C67.9086 130 50 112.091 50 90C50 67.9086 66 50 90 50C112.091 50 130 67.9086 130 90ZM76.5 90C76.5 103.255 76.7452 103.5 90 103.5C103.255 103.5 103.5 103.255 103.5 90C103.5 76.7452 103.255 76.5 90 76.5C76.7452 76.5 76.5 76.7452 76.5 90Z" fill="#0466C8"/>
</svg>
